<svg width="209" height="31" viewBox="0 0 209 31" fill="none" xmlns="http://www.w3.org/2000/svg">
<path d="M10.4202 30.3599C8.32688 30.3599 6.50022 30.0266 4.94022 29.3599C3.38022 28.6933 2.16688 27.6933 1.30022 26.3599C0.433548 25.0133 0.000214875 23.3466 0.000214875 21.3599C0.000214875 21.1333 0.000214875 20.9333 0.000214875 20.7599C0.000214875 20.5733 0.000214875 20.3666 0.000214875 20.1399H5.26022C5.26022 20.3399 5.26022 20.5266 5.26022 20.6999C5.26022 20.8599 5.26022 21.0466 5.26022 21.2599C5.26022 22.8599 5.69355 24.0599 6.56022 24.8599C7.44022 25.6466 8.73355 26.0399 10.4402 26.0399C12.1602 26.0399 13.4735 25.7533 14.3802 25.1799C15.3002 24.6066 15.7602 23.6866 15.7602 22.4199C15.7602 21.4999 15.4469 20.7199 14.8202 20.0799C14.2069 19.4266 13.3602 18.8533 12.2802 18.3599C11.2002 17.8666 9.97355 17.4066 8.60022 16.9799C7.05355 16.4999 5.64688 15.8799 4.38022 15.1199C3.11355 14.3599 2.10022 13.3999 1.34021 12.2399C0.580215 11.0799 0.200215 9.65325 0.200215 7.95992C0.200215 6.26659 0.633548 4.82659 1.50021 3.63992C2.38021 2.45325 3.58021 1.55325 5.10022 0.939919C6.63355 0.313254 8.37355 -7.9155e-05 10.3202 -7.9155e-05C12.3602 -7.9155e-05 14.1535 0.319921 15.7002 0.95992C17.2602 1.59992 18.4802 2.55325 19.3602 3.81992C20.2402 5.08659 20.6802 6.66659 20.6802 8.55992C20.6802 8.81325 20.6802 9.03325 20.6802 9.21992C20.6802 9.40659 20.6802 9.61992 20.6802 9.85992H15.4002C15.4002 9.68659 15.4002 9.51325 15.4002 9.33992C15.4002 9.15325 15.4002 8.97325 15.4002 8.79992C15.4002 7.27992 14.9869 6.15992 14.1602 5.43992C13.3335 4.70659 12.0802 4.33992 10.4002 4.33992C8.76022 4.33992 7.50022 4.62659 6.62022 5.19992C5.74021 5.77325 5.30021 6.68659 5.30021 7.93992C5.30021 8.87325 5.60021 9.65325 6.20022 10.2799C6.80022 10.9066 7.62022 11.4533 8.66022 11.9199C9.71355 12.3733 10.9069 12.8333 12.2402 13.2999C14.0135 13.8866 15.5469 14.5533 16.8402 15.2999C18.1335 16.0333 19.1335 16.9533 19.8402 18.0599C20.5469 19.1533 20.9002 20.5466 20.9002 22.2399C20.9002 23.9733 20.4602 25.4466 19.5802 26.6599C18.7135 27.8599 17.4935 28.7799 15.9202 29.4199C14.3602 30.0466 12.5269 30.3599 10.4202 30.3599ZM35.0733 30.3199C34.3133 30.3199 33.54 30.2466 32.7533 30.0999C31.9667 29.9533 31.2467 29.6799 30.5933 29.2799C29.94 28.8799 29.4133 28.2933 29.0133 27.5199C28.6133 26.7466 28.4133 25.7266 28.4133 24.4599C28.4133 24.1666 28.4133 23.8733 28.4133 23.5799C28.4133 23.2733 28.4133 22.9599 28.4133 22.6399V12.8799H23.3933V8.67992H25.4333C26.1267 8.67992 26.6733 8.65325 27.0733 8.59992C27.4733 8.53325 27.7667 8.38659 27.9533 8.15992C28.14 7.93325 28.26 7.57992 28.3133 7.09992C28.38 6.60659 28.4133 5.92659 28.4133 5.05992V1.67992H33.6933V8.67992H40.0133V12.8799H33.6933V21.3999C33.6933 21.6533 33.6933 21.9066 33.6933 22.1599C33.6933 22.3999 33.6933 22.6333 33.6933 22.8599C33.6933 23.8466 33.8133 24.6399 34.0533 25.2399C34.2933 25.8399 34.86 26.1399 35.7533 26.1399C36.18 26.1399 36.58 26.0999 36.9533 26.0199C37.34 25.9399 37.6267 25.8599 37.8133 25.7799V29.8999C37.56 29.9933 37.1933 30.0866 36.7133 30.1799C36.2333 30.2733 35.6867 30.3199 35.0733 30.3199ZM43.9852 29.9199V8.67992H49.2452V15.7399L48.0252 15.0599C48.1585 14.1399 48.4052 13.2733 48.7652 12.4599C49.1252 11.6333 49.6052 10.9133 50.2052 10.2999C50.8052 9.67325 51.5319 9.18659 52.3852 8.83992C53.2385 8.49325 54.2119 8.31992 55.3052 8.31992C56.1719 8.31992 56.8519 8.38659 57.3452 8.51992C57.8519 8.63992 58.1652 8.73992 58.2852 8.81992L57.3252 13.6399C57.1919 13.5466 56.9185 13.4333 56.5052 13.2999C56.1052 13.1533 55.5652 13.0799 54.8852 13.0799C53.8052 13.0799 52.8985 13.2666 52.1652 13.6399C51.4452 13.9999 50.8719 14.4933 50.4452 15.1199C50.0185 15.7333 49.7119 16.4133 49.5252 17.1599C49.3385 17.8933 49.2452 18.6266 49.2452 19.3599V29.9199H43.9852ZM63.1718 20.9999V17.2599H78.0318L77.4318 18.2599C77.4318 18.1799 77.4318 18.0933 77.4318 17.9999C77.4318 17.8933 77.4318 17.8066 77.4318 17.7399C77.4318 16.8199 77.2251 15.9599 76.8118 15.1599C76.3984 14.3466 75.7718 13.6933 74.9318 13.1999C74.0918 12.6933 73.0251 12.4399 71.7318 12.4399C70.4518 12.4399 69.3384 12.7133 68.3918 13.2599C67.4584 13.7933 66.7318 14.5666 66.2118 15.5799C65.7051 16.5933 65.4518 17.8066 65.4518 19.2199C65.4518 20.6733 65.6984 21.9266 66.1918 22.9799C66.6851 24.0199 67.4051 24.8199 68.3518 25.3799C69.3118 25.9266 70.4784 26.1999 71.8518 26.1999C72.7851 26.1999 73.5918 26.1133 74.2718 25.9399C74.9518 25.7666 75.5051 25.5333 75.9318 25.2399C76.3718 24.9333 76.6984 24.6066 76.9118 24.2599C77.1384 23.9133 77.2718 23.5666 77.3118 23.2199H82.5518C82.4718 24.1133 82.1718 24.9866 81.6518 25.8399C81.1451 26.6799 80.4318 27.4466 79.5118 28.1399C78.5918 28.8199 77.4718 29.3666 76.1518 29.7799C74.8451 30.1799 73.3518 30.3799 71.6718 30.3799C69.3918 30.3799 67.3984 29.9133 65.6918 28.9799C63.9851 28.0466 62.6518 26.7466 61.6918 25.0799C60.7451 23.4133 60.2718 21.5066 60.2718 19.3599C60.2718 17.1599 60.7518 15.2333 61.7118 13.5799C62.6851 11.9266 64.0318 10.6399 65.7518 9.71992C67.4718 8.78659 69.4451 8.31992 71.6718 8.31992C73.9651 8.31992 75.9451 8.78659 77.6118 9.71992C79.2918 10.6533 80.5851 11.9533 81.4918 13.6199C82.3984 15.2733 82.8518 17.1999 82.8518 19.3999C82.8518 19.6799 82.8451 19.9799 82.8318 20.2999C82.8184 20.6199 82.7984 20.8533 82.7718 20.9999H63.1718ZM89.1483 20.9999V17.2599H104.008L103.408 18.2599C103.408 18.1799 103.408 18.0933 103.408 17.9999C103.408 17.8933 103.408 17.8066 103.408 17.7399C103.408 16.8199 103.202 15.9599 102.788 15.1599C102.375 14.3466 101.748 13.6933 100.908 13.1999C100.068 12.6933 99.0017 12.4399 97.7083 12.4399C96.4283 12.4399 95.315 12.7133 94.3683 13.2599C93.435 13.7933 92.7083 14.5666 92.1883 15.5799C91.6817 16.5933 91.4283 17.8066 91.4283 19.2199C91.4283 20.6733 91.675 21.9266 92.1683 22.9799C92.6617 24.0199 93.3817 24.8199 94.3283 25.3799C95.2883 25.9266 96.455 26.1999 97.8283 26.1999C98.7617 26.1999 99.5683 26.1133 100.248 25.9399C100.928 25.7666 101.482 25.5333 101.908 25.2399C102.348 24.9333 102.675 24.6066 102.888 24.2599C103.115 23.9133 103.248 23.5666 103.288 23.2199H108.528C108.448 24.1133 108.148 24.9866 107.628 25.8399C107.122 26.6799 106.408 27.4466 105.488 28.1399C104.568 28.8199 103.448 29.3666 102.128 29.7799C100.822 30.1799 99.3283 30.3799 97.6483 30.3799C95.3683 30.3799 93.375 29.9133 91.6683 28.9799C89.9617 28.0466 88.6283 26.7466 87.6683 25.0799C86.7217 23.4133 86.2483 21.5066 86.2483 19.3599C86.2483 17.1599 86.7283 15.2333 87.6883 13.5799C88.6617 11.9266 90.0083 10.6399 91.7283 9.71992C93.4483 8.78659 95.4217 8.31992 97.6483 8.31992C99.9417 8.31992 101.922 8.78659 103.588 9.71992C105.268 10.6533 106.562 11.9533 107.468 13.6199C108.375 15.2733 108.828 17.1999 108.828 19.3999C108.828 19.6799 108.822 19.9799 108.808 20.2999C108.795 20.6199 108.775 20.8533 108.748 20.9999H89.1483ZM122.691 30.3199C121.931 30.3199 121.157 30.2466 120.371 30.0999C119.584 29.9533 118.864 29.6799 118.211 29.2799C117.557 28.8799 117.031 28.2933 116.631 27.5199C116.231 26.7466 116.031 25.7266 116.031 24.4599C116.031 24.1666 116.031 23.8733 116.031 23.5799C116.031 23.2733 116.031 22.9599 116.031 22.6399V12.8799H111.011V8.67992H113.051C113.744 8.67992 114.291 8.65325 114.691 8.59992C115.091 8.53325 115.384 8.38659 115.571 8.15992C115.757 7.93325 115.877 7.57992 115.931 7.09992C115.997 6.60659 116.031 5.92659 116.031 5.05992V1.67992H121.311V8.67992H127.631V12.8799H121.311V21.3999C121.311 21.6533 121.311 21.9066 121.311 22.1599C121.311 22.3999 121.311 22.6333 121.311 22.8599C121.311 23.8466 121.431 24.6399 121.671 25.2399C121.911 25.8399 122.477 26.1399 123.371 26.1399C123.797 26.1399 124.197 26.0999 124.571 26.0199C124.957 25.9399 125.244 25.8599 125.431 25.7799V29.8999C125.177 29.9933 124.811 30.0866 124.331 30.1799C123.851 30.2733 123.304 30.3199 122.691 30.3199ZM164.842 19.2999C164.842 20.5533 164.609 21.8266 164.142 23.1199C163.676 24.4133 162.962 25.6133 162.002 26.7199C161.056 27.8133 159.856 28.6933 158.402 29.3599C156.949 30.0266 155.242 30.3599 153.282 30.3599C150.629 30.3599 148.362 29.7133 146.482 28.4199C144.616 27.1133 143.189 25.3199 142.202 23.0399C141.229 20.7599 140.742 18.1399 140.742 15.1799C140.742 12.2066 141.229 9.57992 142.202 7.29992C143.189 5.01992 144.616 3.23325 146.482 1.93992C148.362 0.646588 150.629 -7.9155e-05 153.282 -7.9155e-05C155.482 -7.9155e-05 157.362 0.419921 158.922 1.25992C160.482 2.09992 161.729 3.17992 162.662 4.49992C163.596 5.81992 164.222 7.19992 164.542 8.63992C164.742 9.47992 164.842 10.2799 164.842 11.0399H159.542C159.542 10.6533 159.516 10.2533 159.462 9.83992C159.316 8.82659 158.976 7.90659 158.442 7.07992C157.922 6.23992 157.229 5.57992 156.362 5.09992C155.496 4.60659 154.469 4.35992 153.282 4.35992C151.869 4.35992 150.622 4.75325 149.542 5.53992C148.476 6.32659 147.636 7.51992 147.022 9.11992C146.409 10.7199 146.102 12.7399 146.102 15.1799C146.102 17.5933 146.409 19.6066 147.022 21.2199C147.636 22.8333 148.476 24.0399 149.542 24.8399C150.622 25.6399 151.869 26.0399 153.282 26.0399C154.296 26.0399 155.189 25.8533 155.962 25.4799C156.736 25.1066 157.389 24.6066 157.922 23.9799C158.456 23.3399 158.856 22.6199 159.122 21.8199C159.402 21.0199 159.542 20.1799 159.542 19.2999H164.842ZM176.899 30.3199C175.392 30.3199 174.139 30.0666 173.139 29.5599C172.152 29.0533 171.372 28.3866 170.799 27.5599C170.239 26.7333 169.839 25.8199 169.599 24.8199C169.372 23.8199 169.259 22.8199 169.259 21.8199C169.259 21.3266 169.259 20.8133 169.259 20.2799C169.259 19.7466 169.259 19.2066 169.259 18.6599V8.67992H174.539V17.8399C174.539 18.3199 174.539 18.7799 174.539 19.2199C174.539 19.6599 174.539 20.0733 174.539 20.4599C174.539 21.4066 174.652 22.2866 174.879 23.0999C175.105 23.8999 175.519 24.5466 176.119 25.0399C176.732 25.5333 177.592 25.7799 178.699 25.7799C179.752 25.7799 180.659 25.4733 181.419 24.8599C182.179 24.2333 182.765 23.4466 183.179 22.4999C183.605 21.5533 183.819 20.5933 183.819 19.6199L185.619 20.8199C185.619 22.1133 185.419 23.3333 185.019 24.4799C184.619 25.6133 184.039 26.6199 183.279 27.4999C182.519 28.3799 181.599 29.0733 180.519 29.5799C179.452 30.0733 178.245 30.3199 176.899 30.3199ZM183.819 29.9199V8.67992H189.079V29.9199H183.819ZM203.901 30.3199C203.141 30.3199 202.368 30.2466 201.581 30.0999C200.795 29.9533 200.075 29.6799 199.421 29.2799C198.768 28.8799 198.241 28.2933 197.841 27.5199C197.441 26.7466 197.241 25.7266 197.241 24.4599C197.241 24.1666 197.241 23.8733 197.241 23.5799C197.241 23.2733 197.241 22.9599 197.241 22.6399V12.8799H192.221V8.67992H194.261C194.955 8.67992 195.501 8.65325 195.901 8.59992C196.301 8.53325 196.595 8.38659 196.781 8.15992C196.968 7.93325 197.088 7.57992 197.141 7.09992C197.208 6.60659 197.241 5.92659 197.241 5.05992V1.67992H202.521V8.67992H208.841V12.8799H202.521V21.3999C202.521 21.6533 202.521 21.9066 202.521 22.1599C202.521 22.3999 202.521 22.6333 202.521 22.8599C202.521 23.8466 202.641 24.6399 202.881 25.2399C203.121 25.8399 203.688 26.1399 204.581 26.1399C205.008 26.1399 205.408 26.0999 205.781 26.0199C206.168 25.9399 206.455 25.8599 206.641 25.7799V29.8999C206.388 29.9933 206.021 30.0866 205.541 30.1799C205.061 30.2733 204.515 30.3199 203.901 30.3199Z" fill="#00063C"/>
</svg>
